<mxfile host="app.diagrams.net" agent="Mozilla/5.0 (Windows NT 10.0; Win64; x64) AppleWebKit/537.36 (KHTML, like Gecko) Chrome/131.0.0.0 Safari/537.36" version="24.8.8">
  <diagram name="Page-1" id="c7558073-3199-34d8-9f00-42111426c3f3">
    <mxGraphModel dx="785" dy="473" grid="1" gridSize="10" guides="1" tooltips="1" connect="1" arrows="1" fold="1" page="1" pageScale="1" pageWidth="826" pageHeight="1169" background="none" math="0" shadow="0">
      <root>
        <mxCell id="0" />
        <mxCell id="1" parent="0" />
        <mxCell id="-Cts0vxJBHxvkgaAWnbO-96" value="Air Bnb Clone" style="text;html=1;align=center;verticalAlign=middle;resizable=0;points=[];autosize=1;strokeColor=none;fillColor=none;" vertex="1" parent="1">
          <mxGeometry x="260" y="48" width="100" height="30" as="geometry" />
        </mxCell>
        <mxCell id="-Cts0vxJBHxvkgaAWnbO-97" value="" style="image;sketch=0;aspect=fixed;html=1;points=[];align=center;fontSize=12;image=img/lib/mscae/Person.svg;" vertex="1" parent="1">
          <mxGeometry x="60" y="78" width="31.08" height="42" as="geometry" />
        </mxCell>
        <mxCell id="-Cts0vxJBHxvkgaAWnbO-100" value="User" style="text;html=1;align=center;verticalAlign=middle;resizable=0;points=[];autosize=1;strokeColor=none;fillColor=none;" vertex="1" parent="1">
          <mxGeometry x="53.5" y="49" width="50" height="30" as="geometry" />
        </mxCell>
        <mxCell id="-Cts0vxJBHxvkgaAWnbO-101" value="" style="sketch=0;outlineConnect=0;fontColor=#232F3E;gradientColor=none;fillColor=#232F3D;strokeColor=none;dashed=0;verticalLabelPosition=bottom;verticalAlign=top;align=center;html=1;fontSize=12;fontStyle=0;aspect=fixed;pointerEvents=1;shape=mxgraph.aws4.shield2;" vertex="1" parent="1">
          <mxGeometry x="190" y="78" width="50" height="50" as="geometry" />
        </mxCell>
        <mxCell id="-Cts0vxJBHxvkgaAWnbO-102" value="" style="endArrow=classic;html=1;rounded=0;exitX=1.047;exitY=0.524;exitDx=0;exitDy=0;exitPerimeter=0;" edge="1" parent="1" source="-Cts0vxJBHxvkgaAWnbO-97" target="-Cts0vxJBHxvkgaAWnbO-101">
          <mxGeometry width="50" height="50" relative="1" as="geometry">
            <mxPoint x="350" y="280" as="sourcePoint" />
            <mxPoint x="400" y="230" as="targetPoint" />
          </mxGeometry>
        </mxCell>
        <mxCell id="-Cts0vxJBHxvkgaAWnbO-103" value="Authentication" style="edgeLabel;html=1;align=center;verticalAlign=middle;resizable=0;points=[];" vertex="1" connectable="0" parent="-Cts0vxJBHxvkgaAWnbO-102">
          <mxGeometry x="-0.1355" y="10" relative="1" as="geometry">
            <mxPoint as="offset" />
          </mxGeometry>
        </mxCell>
        <mxCell id="-Cts0vxJBHxvkgaAWnbO-104" value="" style="points=[];aspect=fixed;html=1;align=center;shadow=0;dashed=0;fillColor=#FF6A00;strokeColor=none;shape=mxgraph.alibaba_cloud.cas_ssl_central_authentication_service;" vertex="1" parent="1">
          <mxGeometry x="311.20000000000005" y="78.5" width="43.8" height="49.5" as="geometry" />
        </mxCell>
        <mxCell id="-Cts0vxJBHxvkgaAWnbO-105" value="User&lt;div&gt;Authorisation&lt;/div&gt;" style="text;html=1;align=center;verticalAlign=middle;resizable=0;points=[];autosize=1;strokeColor=none;fillColor=none;" vertex="1" parent="1">
          <mxGeometry x="288.09999999999997" y="123" width="90" height="40" as="geometry" />
        </mxCell>
        <mxCell id="-Cts0vxJBHxvkgaAWnbO-106" value="" style="points=[];aspect=fixed;html=1;align=center;shadow=0;dashed=0;fillColor=#FF6A00;strokeColor=none;shape=mxgraph.alibaba_cloud.opensearch;" vertex="1" parent="1">
          <mxGeometry x="56.800000000000004" y="193" width="40.2" height="40" as="geometry" />
        </mxCell>
        <mxCell id="-Cts0vxJBHxvkgaAWnbO-107" value="Search Listing" style="text;html=1;align=center;verticalAlign=middle;resizable=0;points=[];autosize=1;strokeColor=none;fillColor=none;" vertex="1" parent="1">
          <mxGeometry x="30" y="240" width="100" height="30" as="geometry" />
        </mxCell>
        <mxCell id="-Cts0vxJBHxvkgaAWnbO-110" value="" style="sketch=0;html=1;aspect=fixed;strokeColor=none;shadow=0;fillColor=#3B8DF1;verticalAlign=top;labelPosition=center;verticalLabelPosition=bottom;shape=mxgraph.gcp2.save" vertex="1" parent="1">
          <mxGeometry x="214.29000000000002" y="520" width="35.71" height="30" as="geometry" />
        </mxCell>
        <mxCell id="-Cts0vxJBHxvkgaAWnbO-111" value="Add&lt;div&gt;Listing&lt;/div&gt;" style="text;html=1;align=center;verticalAlign=middle;resizable=0;points=[];autosize=1;strokeColor=none;fillColor=none;" vertex="1" parent="1">
          <mxGeometry x="43.5" y="320" width="60" height="40" as="geometry" />
        </mxCell>
        <mxCell id="-Cts0vxJBHxvkgaAWnbO-112" value="Edit&amp;nbsp;&lt;div&gt;Listing&lt;/div&gt;" style="html=1;verticalLabelPosition=bottom;align=center;labelBackgroundColor=#ffffff;verticalAlign=top;strokeWidth=2;strokeColor=#0080F0;shadow=0;dashed=0;shape=mxgraph.ios7.icons.delete;" vertex="1" parent="1">
          <mxGeometry x="120" y="280" width="30" height="30" as="geometry" />
        </mxCell>
        <mxCell id="-Cts0vxJBHxvkgaAWnbO-113" value="Payment" style="html=1;whiteSpace=wrap;strokeColor=none;fillColor=#0079D6;labelPosition=center;verticalLabelPosition=middle;verticalAlign=top;align=center;fontSize=12;outlineConnect=0;spacingTop=-6;fontColor=#FFFFFF;sketch=0;shape=mxgraph.sitemap.payment;" vertex="1" parent="1">
          <mxGeometry x="195" y="298" width="40" height="22" as="geometry" />
        </mxCell>
        <mxCell id="-Cts0vxJBHxvkgaAWnbO-117" value="" style="image;sketch=0;aspect=fixed;html=1;points=[];align=center;fontSize=12;image=img/lib/mscae/Person.svg;" vertex="1" parent="1">
          <mxGeometry x="580" y="79" width="37" height="50" as="geometry" />
        </mxCell>
        <mxCell id="-Cts0vxJBHxvkgaAWnbO-118" value="Property&lt;div&gt;Manger&lt;/div&gt;" style="text;html=1;align=center;verticalAlign=middle;resizable=0;points=[];autosize=1;strokeColor=none;fillColor=none;" vertex="1" parent="1">
          <mxGeometry x="565" y="123" width="70" height="40" as="geometry" />
        </mxCell>
        <mxCell id="-Cts0vxJBHxvkgaAWnbO-119" value="" style="html=1;verticalLabelPosition=bottom;align=center;labelBackgroundColor=#ffffff;verticalAlign=top;strokeWidth=2;strokeColor=#0080F0;shadow=0;dashed=0;shape=mxgraph.ios7.icons.add;" vertex="1" parent="1">
          <mxGeometry x="580" y="203" width="20" height="20" as="geometry" />
        </mxCell>
        <mxCell id="-Cts0vxJBHxvkgaAWnbO-120" value="" style="html=1;verticalLabelPosition=bottom;align=center;labelBackgroundColor=#ffffff;verticalAlign=top;strokeWidth=2;strokeColor=#0080F0;shadow=0;dashed=0;shape=mxgraph.ios7.icons.home;" vertex="1" parent="1">
          <mxGeometry x="600" y="204" width="24" height="25.5" as="geometry" />
        </mxCell>
        <mxCell id="-Cts0vxJBHxvkgaAWnbO-121" value="Add Property" style="text;html=1;align=center;verticalAlign=middle;resizable=0;points=[];autosize=1;strokeColor=none;fillColor=none;" vertex="1" parent="1">
          <mxGeometry x="565" y="218" width="90" height="30" as="geometry" />
        </mxCell>
        <mxCell id="-Cts0vxJBHxvkgaAWnbO-122" value="" style="sketch=0;pointerEvents=1;shadow=0;dashed=0;html=1;strokeColor=none;labelPosition=center;verticalLabelPosition=bottom;verticalAlign=top;align=center;fillColor=#515151;shape=mxgraph.mscae.system_center.admin_console" vertex="1" parent="1">
          <mxGeometry x="311.2" y="260" width="78.8" height="60" as="geometry" />
        </mxCell>
        <mxCell id="-Cts0vxJBHxvkgaAWnbO-123" value="Admin" style="text;html=1;align=center;verticalAlign=middle;resizable=0;points=[];autosize=1;strokeColor=none;fillColor=none;" vertex="1" parent="1">
          <mxGeometry x="311.2" y="320" width="60" height="30" as="geometry" />
        </mxCell>
        <mxCell id="-Cts0vxJBHxvkgaAWnbO-124" value="" style="verticalLabelPosition=bottom;sketch=0;aspect=fixed;html=1;verticalAlign=top;strokeColor=none;align=center;outlineConnect=0;shape=mxgraph.citrix.process;" vertex="1" parent="1">
          <mxGeometry x="174.03" y="189" width="40.26" height="48" as="geometry" />
        </mxCell>
        <mxCell id="-Cts0vxJBHxvkgaAWnbO-125" value="Process&lt;div&gt;Booking&lt;/div&gt;" style="text;html=1;align=center;verticalAlign=middle;resizable=0;points=[];autosize=1;strokeColor=none;fillColor=none;" vertex="1" parent="1">
          <mxGeometry x="180" y="172" width="70" height="40" as="geometry" />
        </mxCell>
        <mxCell id="-Cts0vxJBHxvkgaAWnbO-126" value="Payment" style="strokeColor=#dddddd;shadow=1;strokeWidth=1;rounded=1;absoluteArcSize=1;arcSize=2;labelPosition=center;verticalLabelPosition=middle;align=center;verticalAlign=bottom;spacingLeft=0;fontColor=#999999;fontSize=12;whiteSpace=wrap;spacingBottom=2;html=1;" vertex="1" parent="1">
          <mxGeometry x="520" y="360" width="70" height="60" as="geometry" />
        </mxCell>
        <mxCell id="-Cts0vxJBHxvkgaAWnbO-127" value="" style="sketch=0;dashed=0;connectable=0;html=1;fillColor=#757575;strokeColor=none;shape=mxgraph.gcp2.payment;part=1;" vertex="1" parent="-Cts0vxJBHxvkgaAWnbO-126">
          <mxGeometry x="0.5" width="50" height="40" relative="1" as="geometry">
            <mxPoint x="-25" y="15" as="offset" />
          </mxGeometry>
        </mxCell>
        <mxCell id="-Cts0vxJBHxvkgaAWnbO-129" value="process&amp;nbsp;&lt;div&gt;Payment&lt;/div&gt;" style="text;html=1;align=center;verticalAlign=middle;resizable=0;points=[];autosize=1;strokeColor=none;fillColor=none;" vertex="1" parent="1">
          <mxGeometry x="360" y="503" width="70" height="40" as="geometry" />
        </mxCell>
        <mxCell id="-Cts0vxJBHxvkgaAWnbO-130" value="" style="html=1;verticalLabelPosition=bottom;align=center;labelBackgroundColor=#ffffff;verticalAlign=top;strokeWidth=2;strokeColor=#0080F0;shadow=0;dashed=0;shape=mxgraph.ios7.icons.add;" vertex="1" parent="1">
          <mxGeometry x="61.9" y="280" width="30" height="30" as="geometry" />
        </mxCell>
        <mxCell id="-Cts0vxJBHxvkgaAWnbO-131" value="Save&amp;nbsp;&lt;div&gt;Listing&lt;/div&gt;" style="text;html=1;align=center;verticalAlign=middle;resizable=0;points=[];autosize=1;strokeColor=none;fillColor=none;" vertex="1" parent="1">
          <mxGeometry x="202.14" y="550" width="60" height="40" as="geometry" />
        </mxCell>
        <mxCell id="-Cts0vxJBHxvkgaAWnbO-136" value="" style="endArrow=classic;html=1;rounded=0;" edge="1" parent="1" source="-Cts0vxJBHxvkgaAWnbO-101">
          <mxGeometry width="50" height="50" relative="1" as="geometry">
            <mxPoint x="230" y="104.47" as="sourcePoint" />
            <mxPoint x="310" y="103" as="targetPoint" />
          </mxGeometry>
        </mxCell>
        <mxCell id="-Cts0vxJBHxvkgaAWnbO-137" value="Authentication" style="edgeLabel;html=1;align=center;verticalAlign=middle;resizable=0;points=[];" vertex="1" connectable="0" parent="-Cts0vxJBHxvkgaAWnbO-136">
          <mxGeometry x="-0.1355" y="10" relative="1" as="geometry">
            <mxPoint as="offset" />
          </mxGeometry>
        </mxCell>
        <mxCell id="-Cts0vxJBHxvkgaAWnbO-142" style="edgeStyle=orthogonalEdgeStyle;rounded=0;orthogonalLoop=1;jettySize=auto;html=1;exitX=0.01;exitY=0.01;exitDx=0;exitDy=0;exitPerimeter=0;entryX=0.238;entryY=1.084;entryDx=0;entryDy=0;entryPerimeter=0;" edge="1" parent="1" source="-Cts0vxJBHxvkgaAWnbO-122" target="-Cts0vxJBHxvkgaAWnbO-105">
          <mxGeometry relative="1" as="geometry" />
        </mxCell>
        <mxCell id="-Cts0vxJBHxvkgaAWnbO-143" value="Verified user" style="edgeLabel;html=1;align=center;verticalAlign=middle;resizable=0;points=[];" vertex="1" connectable="0" parent="-Cts0vxJBHxvkgaAWnbO-142">
          <mxGeometry x="0.541" y="1" relative="1" as="geometry">
            <mxPoint as="offset" />
          </mxGeometry>
        </mxCell>
        <mxCell id="-Cts0vxJBHxvkgaAWnbO-146" value="" style="endArrow=classic;html=1;rounded=0;entryX=0.5;entryY=0;entryDx=0;entryDy=0;entryPerimeter=0;exitX=0.694;exitY=0.983;exitDx=0;exitDy=0;exitPerimeter=0;" edge="1" parent="1" source="-Cts0vxJBHxvkgaAWnbO-105" target="-Cts0vxJBHxvkgaAWnbO-122">
          <mxGeometry width="50" height="50" relative="1" as="geometry">
            <mxPoint x="350" y="280" as="sourcePoint" />
            <mxPoint x="400" y="230" as="targetPoint" />
          </mxGeometry>
        </mxCell>
        <mxCell id="-Cts0vxJBHxvkgaAWnbO-150" value="" style="endArrow=classic;html=1;rounded=0;exitX=0.386;exitY=1.16;exitDx=0;exitDy=0;exitPerimeter=0;" edge="1" parent="1" source="-Cts0vxJBHxvkgaAWnbO-97">
          <mxGeometry width="50" height="50" relative="1" as="geometry">
            <mxPoint x="67" y="193" as="sourcePoint" />
            <mxPoint x="72" y="190" as="targetPoint" />
          </mxGeometry>
        </mxCell>
      </root>
    </mxGraphModel>
  </diagram>
</mxfile>
